<svg width="597" height="54" viewBox="0 0 597 54" fill="none" xmlns="http://www.w3.org/2000/svg">
<g clip-path="url(#clip0_631_2)">
<path d="M62.4 2.2C61.0667 2.2 60.1 2.7 59.5 3.7C58.9 4.63333 58.4667 5.4 58.2 6L40.5 44.9C39.9 46.2333 39.4 47.3 39 48.1C38.6 48.9 38.4 49.4667 38.4 49.8C38.4 50.1333 38.4667 50.4 38.6 50.6C38.8 50.8 39.0333 51 39.3 51.2V53H24V51.2C24.6 50.9333 24.9 50.4667 24.9 49.8C24.9 49.4667 24.6333 48.8 24.1 47.8C23.6333 46.7333 23.0333 45.4333 22.3 43.9L4.3 4.8C3.96667 4.06666 3.5 3.53333 2.9 3.2C2.3 2.86666 1.43333 2.53333 0.3 2.2V0.399998H18.2V2.2C17.7333 2.2 17.2667 2.33333 16.8 2.6C16.4 2.8 16.2 3.23333 16.2 3.9C16.2 4.63333 16.4667 5.56666 17 6.7C17.6 7.83333 18.3 9.23333 19.1 10.9L31.9 38.4L44.4 11.3C45.2 9.56666 45.9333 8.03333 46.6 6.7C47.3333 5.3 47.7 4.33333 47.7 3.8C47.7 2.73333 46.7667 2.2 44.9 2.2V0.399998H62.4V2.2ZM111.499 18.3C111.499 17.0333 110.466 16.4 108.399 16.4H83.9992V26.4H99.3992C100.533 26.4 101.366 26.3333 101.899 26.2C102.433 26 102.699 25.5333 102.699 24.8H104.499V35.4H102.499C102.699 34.6667 102.433 34.2333 101.699 34.1C100.966 33.9 99.9326 33.8 98.5992 33.8H83.9992V45.6H109.599C110.399 45.6 111.066 45.4333 111.599 45.1C112.133 44.7 112.399 44.2 112.399 43.6H114.199V54.1H112.399C112.399 53.5 112.133 53.1667 111.599 53.1C111.066 53.0333 110.399 53 109.599 53H72.8992V51.2C73.2326 51.2 73.5659 51.1 73.8992 50.9C74.2326 50.6333 74.3992 50.2333 74.3992 49.7V12.3C74.3992 11.7667 74.2326 11.4 73.8992 11.2C73.5659 10.9333 73.2326 10.8 72.8992 10.8V9H108.399C110.466 9 111.499 8.4 111.499 7.2H113.299V18.3H111.499ZM129.266 51.2C130.332 51.2 131.066 51.1 131.466 50.9C131.866 50.6333 132.066 50.2333 132.066 49.7V12.3C132.066 11.7667 131.866 11.4 131.466 11.2C131.066 10.9333 130.332 10.8 129.266 10.8V9H144.466V10.8C142.599 10.8 141.666 11.3 141.666 12.3V49.7C141.666 50.7 142.599 51.2 144.466 51.2V53H129.266V51.2ZM172.266 51.2C172.6 51.2 172.933 51.1 173.266 50.9C173.6 50.6333 173.766 50.2333 173.766 49.7V16.4H160.766C160.233 16.4 159.733 16.5333 159.266 16.8C158.8 17.0667 158.566 17.5 158.566 18.1H156.766V6.6H158.566C158.566 7.53333 158.8 8.16666 159.266 8.5C159.733 8.83333 160.233 9 160.766 9H196.366C196.9 9 197.4 8.83333 197.866 8.5C198.333 8.16666 198.566 7.53333 198.566 6.6H200.366V18.1H198.566C198.566 17.5 198.333 17.0667 197.866 16.8C197.4 16.5333 196.9 16.4 196.366 16.4H183.366V49.7C183.366 50.7 183.966 51.2 185.166 51.2V53H172.266V51.2ZM253.935 49.7C253.935 50.2333 254.068 50.6333 254.335 50.9C254.668 51.1 255.035 51.2 255.435 51.2V53H242.835V51.2C243.235 51.2 243.568 51.1 243.835 50.9C244.168 50.6333 244.335 50.2333 244.335 49.7V12.3C244.335 11.7667 244.168 11.4 243.835 11.2C243.568 10.9333 243.235 10.8 242.835 10.8V9H255.435V10.8C255.035 10.8 254.668 10.9333 254.335 11.2C254.068 11.4 253.935 11.7667 253.935 12.3V26.4H280.735V12.3C280.735 11.7667 280.568 11.4 280.235 11.2C279.968 10.9333 279.635 10.8 279.235 10.8V9H291.835V10.8C291.435 10.8 291.068 10.9333 290.735 11.2C290.468 11.4 290.335 11.7667 290.335 12.3V49.7C290.335 50.2333 290.468 50.6333 290.735 50.9C291.068 51.1 291.435 51.2 291.835 51.2V53H279.235V51.2C279.635 51.2 279.968 51.1 280.235 50.9C280.568 50.6333 280.735 50.2333 280.735 49.7V34.6H253.935V49.7ZM347.534 18.3C347.534 17.0333 346.501 16.4 344.434 16.4H320.034V26.4H335.434C336.568 26.4 337.401 26.3333 337.934 26.2C338.468 26 338.734 25.5333 338.734 24.8H340.534V35.4H338.534C338.734 34.6667 338.468 34.2333 337.734 34.1C337.001 33.9 335.968 33.8 334.634 33.8H320.034V45.6H345.634C346.434 45.6 347.101 45.4333 347.634 45.1C348.168 44.7 348.434 44.2 348.434 43.6H350.234V54.1H348.434C348.434 53.5 348.168 53.1667 347.634 53.1C347.101 53.0333 346.434 53 345.634 53H308.934V51.2C309.268 51.2 309.601 51.1 309.934 50.9C310.268 50.6333 310.434 50.2333 310.434 49.7V12.3C310.434 11.7667 310.268 11.4 309.934 11.2C309.601 10.9333 309.268 10.8 308.934 10.8V9H344.434C346.501 9 347.534 8.4 347.534 7.2H349.334V18.3H347.534ZM378.401 9V10.8C376.867 10.8 376.101 11.3 376.101 12.3V45.6H403.101C403.901 45.6 404.567 45.4333 405.101 45.1C405.634 44.7 405.901 44.1667 405.901 43.5H407.701V54H405.901C405.901 53.4667 405.634 53.1667 405.101 53.1C404.567 53.0333 403.901 53 403.101 53H363.901V51.2C365.634 51.2 366.501 50.7 366.501 49.7V12.3C366.501 11.3 365.634 10.8 363.901 10.8V9H378.401ZM421.167 51.2C421.501 51.1333 421.767 51 421.967 50.8C422.234 50.6 422.367 50.1333 422.367 49.4V12.8C422.367 11.8667 422.267 11.3 422.067 11.1C421.934 10.9 421.634 10.8 421.167 10.8V9H435.067V10.8C434.401 10.8 434.067 11.1 434.067 11.7C434.067 11.9667 434.167 12.3333 434.367 12.8C434.634 13.2 435.001 13.8 435.467 14.6L447.667 37.1L459.967 14.7C460.434 13.9 460.801 13.2667 461.067 12.8C461.334 12.2667 461.467 11.9 461.467 11.7C461.467 11.1 461.201 10.8 460.667 10.8V9H474.767V10.8C474.434 10.8 474.101 10.9 473.767 11.1C473.501 11.2333 473.367 11.5667 473.367 12.1V49.7C473.367 50.2333 473.501 50.6333 473.767 50.9C474.101 51.1 474.434 51.2 474.767 51.2V53H463.167V51.2C464.567 51.2 465.167 50.7 464.967 49.7V21.6H464.767L447.767 53H446.967L430.867 21.6H430.967H430.767V49.7C430.767 50.7 431.334 51.2 432.467 51.2V53H421.167V51.2ZM530.835 18.3C530.835 17.0333 529.802 16.4 527.735 16.4H503.335V26.4H518.735C519.868 26.4 520.702 26.3333 521.235 26.2C521.768 26 522.035 25.5333 522.035 24.8H523.835V35.4H521.835C522.035 34.6667 521.768 34.2333 521.035 34.1C520.302 33.9 519.268 33.8 517.935 33.8H503.335V45.6H528.935C529.735 45.6 530.402 45.4333 530.935 45.1C531.468 44.7 531.735 44.2 531.735 43.6H533.535V54.1H531.735C531.735 53.5 531.468 53.1667 530.935 53.1C530.402 53.0333 529.735 53 528.935 53H492.235V51.2C492.568 51.2 492.902 51.1 493.235 50.9C493.568 50.6333 493.735 50.2333 493.735 49.7V12.3C493.735 11.7667 493.568 11.4 493.235 11.2C492.902 10.9333 492.568 10.8 492.235 10.8V9H527.735C529.802 9 530.835 8.4 530.835 7.2H532.635V18.3H530.835ZM574.802 28C581.335 28 584.602 25.9333 584.602 21.8C584.602 20.1333 583.802 18.8333 582.202 17.9C580.668 16.9 578.202 16.4 574.802 16.4H559.002V28H574.802ZM575.002 9C580.935 9 585.568 10 588.902 12C592.235 13.9333 593.902 17.2667 593.902 22C593.902 23.8 593.568 25.4 592.902 26.8C592.235 28.2 591.335 29.4333 590.202 30.5C589.135 31.5 587.935 32.3333 586.602 33C585.268 33.6 583.902 34.0667 582.502 34.4L592.302 48.7C592.835 49.4333 593.402 50 594.002 50.4C594.668 50.7333 595.368 51 596.102 51.2V53H580.802V51.2C581.668 51.2 582.102 50.9 582.102 50.3C582.102 49.6333 581.602 48.6 580.602 47.2L572.702 35.4H558.802V49.7C558.802 50.2333 559.002 50.6333 559.402 50.9C559.868 51.1 560.302 51.2 560.702 51.2V53H547.402V51.2C548.602 51.2 549.202 50.7 549.202 49.7V12.3C549.202 11.3 548.602 10.8 547.402 10.8V9H575.002Z" fill="white"/>
</g>
<defs>
<clipPath id="clip0_631_2">
<rect width="597" height="54" fill="white"/>
</clipPath>
</defs>
</svg>
